
<svg xmlns="http://www.w3.org/2000/svg" xmlns:xlink="http://www.w3.org/1999/xlink" width="82" height="82" id="__SVG_SPRITE_NODE__">
    <title>椭圆形 2</title>
    <defs>
        <circle id="icon-avator_path-1" cx="41" cy="41" r="41"></circle>
        <filter x="-18.3%" y="-18.3%" width="136.6%" height="136.6%" filterUnits="objectBoundingBox" id="icon-avator_filter-3">
            <feGaussianBlur stdDeviation="15" in="SourceAlpha" result="shadowBlurInner1"></feGaussianBlur>
            <feOffset dx="0" dy="0" in="shadowBlurInner1" result="shadowOffsetInner1"></feOffset>
            <feComposite in="shadowOffsetInner1" in2="SourceAlpha" operator="arithmetic" k2="-1" k3="1" result="shadowInnerInner1"></feComposite>
            <feColorMatrix values="0 0 0 0 0.211764706   0 0 0 0 0.643137255   0 0 0 0 1  0 0 0 0.16 0" type="matrix" in="shadowInnerInner1"></feColorMatrix>
        </filter>
        <path d="M25.3657729,0.834819213 C25.3657729,1.89481393 25.3280075,2.8717659 25.2677971,3.7659114 C25.2000907,5.69197989 25.2058993,8.59671187 24.7521006,10.468914 C24.2294019,11.6564887 23.7997286,12.5113147 23.4630808,13.0333921 C22.414838,14.6590195 18.7459093,11.6950667 12.4562949,4.1415336 L2.84091913,15.4042611 L0.482372783,10.594951 C0.185341507,7.73525985 0.0245505796,5.61758437 0,4.2419246 C-0.0366667277,2.17843493 25.3657729,-1.70827397 25.3657729,0.834819213 Z" id="icon-avator_path-4"></path>
        <path d="M5.28046294,22.3615026 C5.47573864,20.5474313 6.03702978,18.9726744 6.96433636,17.637232 C7.89164295,16.3017897 8.47435034,14.1661605 8.71245852,11.2303446 C13.4553982,9.87097076 19.1105518,9.87097076 25.6779195,11.2303446 C26.1175428,15.7675453 26.7929134,22.1405811 26.4552281,27.7228332 C26.2301046,31.4443346 24.4384754,34.256369 21.0803406,36.1589364 C21.035624,39.9215918 21.1397727,42.0665529 21.3927866,42.5938199 C22.3856717,43.1206752 23.2830059,43.4134465 24.084789,43.4721336 C23.6063973,46.9365173 20.1962215,48.8565386 13.8542614,49.2321975 C7.5123014,49.6078563 4.09018424,48.167845 3.58790994,44.9121636 C4.59429016,43.6123298 5.36291839,42.9624128 5.89379465,42.9624128 C6.81675329,41.5193231 6.80216809,31.9467698 5.28046294,28.0526118 C1.87803909,27.9071092 0.320211753,24.8686355 0.0420062373,22.3615026 C-0.236199279,19.8543697 0.890831653,18.39099 2.73077709,18.7270661 C3.95740738,18.9511168 4.80730267,20.1625957 5.28046294,22.3615026 Z" id="icon-avator_path-6"></path>
        <path d="M27.4619608,8.7198261 C28.097886,12.3619698 26.3798801,18.2784081 26.3298189,17.0131374 C26.234929,14.6148403 25.63843,11.638823 23.7595517,11.0211661 C20.8894326,10.0776518 19.3580604,11.1273281 17.6739072,11.1273281 C15.9897541,11.1273281 9.46086644,9.38015905 8.61712336,12.3353248 C8.35470492,13.2544316 6.37280363,12.9564044 5.76858802,13.9000186 C4.17664876,16.3861783 3.21019752,16.3980753 2.25133593,14.3109908 C2.12476576,12.0631506 1.99305707,10.2361395 2.518321,8.33067919 C3.67150153,4.14737332 9.69854622,0.53132953 12.2317828,0.111901992 C13.9496306,-0.172521756 16.8355548,-0.0411171173 18.4083383,2.02778975 C21.1029556,0.111901992 26.5944063,3.75106842 27.4619608,8.7198261 Z" id="icon-avator_path-8"></path>
        <path d="M0,83.484017 C1.49496846,72.3691203 5.20945143,60.6840177 7.62672499,55.2453388 C11.4709135,46.5962114 24.3566135,45.9664296 30.333113,45.0932589 C31.8541745,43.9213883 34.4383176,40.8978149 34.9896421,40.6915302 C37.617619,42.617014 40.1951291,44.398136 45.4024247,47.6204055 C46.3060904,46.4300644 48.0187752,43.335436 49.7175085,40.6915302 C51.5816698,42.4283478 53.3853623,44.1250293 54.0632099,45.0932589 C60.7750441,46.1223208 69.2876725,49.2239066 72.2477716,51.6936794 C77.53533,56.1053787 81.6382647,71.5080734 82,84.0646173 C77.1159278,85.6960426 71.7967463,85.774928 67.6908176,86.1783256 C66.6325091,94.9627421 22.0773279,95.2432958 20.9266967,85.0864587 C18.9224539,91.3351363 2.8905373,86.4004002 0,83.484017 Z" id="icon-avator_path-10"></path>
    </defs>
    <g id="icon-avator_页面-1" stroke="none" stroke-width="1" fill="none" fill-rule="evenodd">
        <g id="icon-avator_2-1-1详情备份" transform="translate(-468.000000, -153.000000)">
            <g id="icon-avator_详情抽屉" transform="translate(432.000000, 0.000000)">
                <g id="icon-avator_椭圆形-2" transform="translate(36.000000, 153.000000)">
                    <mask id="icon-avator_mask-2" fill="white">
                        <use xlink:href="#icon-avator_path-1"></use>
                    </mask>
                    <g id="icon-avator_椭圆形" opacity="0.762581759">
                        <use fill-opacity="0.06" fill="#36A4FF" fill-rule="evenodd" xlink:href="#icon-avator_path-1"></use>
                        <use fill="black" fill-opacity="1" filter="url(#icon-avator_filter-3)" xlink:href="#icon-avator_path-1"></use>
                    </g>
                    <g id="icon-avator_患者男" mask="url(#icon-avator_mask-2)">
                        <g transform="translate(43.928571, 60.035451) scale(-1, 1) translate(-43.928571, -60.035451) translate(2.928571, 13.666139)">
                            <g id="icon-avator_编组-4备份-2" stroke="none" stroke-width="1" fill="none" fill-rule="evenodd" transform="translate(43.285069, 24.892983) rotate(1.000000) translate(-43.285069, -24.892983) translate(28.874929, 0.247738)">
                                <g id="icon-avator_路径-124" transform="translate(2.228742, 9.509908)">
                                    <mask id="icon-avator_mask-5" fill="white">
                                        <use xlink:href="#icon-avator_path-4"></use>
                                    </mask>
                                    <use id="icon-avator_路径" fill="#263367" xlink:href="#icon-avator_path-4"></use>
                                </g>
                                <g id="icon-avator_编组-2">
                                    <path d="M25.6835148,20.1048595 C27.408665,19.3088504 28.422192,19.4994875 28.7240959,20.6767707 C29.1769516,22.4426955 28.0087152,27.7228332 25.6835148,27.7228332 C24.1333813,27.7228332 24.1333813,25.1835086 25.6835148,20.1048595 Z" id="icon-avator_路径-131" fill="#FFD3CB"></path>
                                    <mask id="icon-avator_mask-7" fill="white">
                                        <use xlink:href="#icon-avator_path-6"></use>
                                    </mask>
                                    <use id="icon-avator_路径-8" fill="#FFCAC1" xlink:href="#icon-avator_path-6"></use>
                                    <path d="M-3.24100638,20.1048595 L1.44219502,29.1105658 L5.29432969,28.0427382 C8.17457847,33.777623 12.1967526,36.6450655 17.360852,36.6450655 C22.5249515,36.6450655 28.9554012,35.4279736 36.6522013,32.9937899 L32.9500615,7.36336563 L2.22729604,7.36336563 L-3.24100638,20.1048595 Z" id="icon-avator_路径-2" fill="#FFDDD6" mask="url(#icon-avator_mask-7)"></path>
                                    <path d="M12.1123259,35.3102666 C14.7640632,36.8868482 17.9503822,37.2192036 21.671283,36.3073327" id="icon-avator_路径-121" stroke="#CE7C64" stroke-width="0.833333333" stroke-linecap="round" stroke-linejoin="round" mask="url(#icon-avator_mask-7)"></path>
                                    <path d="M18.6120003,20.8438942 C18.7920732,22.4594306 19.4066288,23.481137 20.455667,23.9090133 C20.0306388,24.4090613 19.1891616,25.0596767 17.9312354,25.8608595" id="icon-avator_路径-129" stroke="#CE7C64" stroke-width="0.833333333" stroke-linecap="round" stroke-linejoin="round" mask="url(#icon-avator_mask-7)"></path>
                                    <path d="M13.3504372,26.127984 C13.7543889,28.6808473 15.3296481,29.9573501 18.0762146,29.9574922" id="icon-avator_路径-130" stroke="#CE7C64" stroke-width="0.833333333" stroke-linecap="round" stroke-linejoin="round" mask="url(#icon-avator_mask-7)" transform="translate(15.713326, 28.042738) rotate(-5.000000) translate(-15.713326, -28.042738) "></path>
                                    <mask id="icon-avator_mask-9" fill="white">
                                        <use xlink:href="#icon-avator_path-8"></use>
                                    </mask>
                                    <use id="icon-avator_路径" fill="#263367" xlink:href="#icon-avator_path-8"></use>
                                    <path d="M2.36348292,21.4874199 C3.46416911,22.4530428 4.29470372,23.7336841 4.85508675,25.3293437" id="icon-avator_路径-123" stroke="#CE7C64" stroke-width="0.833333333" stroke-linecap="round" stroke-linejoin="round"></path>
                                    <path d="M9.42846583,16.2806931 C11.3553228,14.5944838 13.2882415,14.5944838 15.2272219,16.2806931" id="icon-avator_路径-125" stroke="#002C79" stroke-width="0.833333333" stroke-linecap="round" stroke-linejoin="round"></path>
                                    <path d="M20.455667,16.2806931 C21.5665247,14.7956786 22.9631326,14.5849024 24.6454908,15.6483646" id="icon-avator_路径-126" stroke="#002C79" stroke-width="0.833333333" stroke-linecap="round" stroke-linejoin="round"></path>
                                    <ellipse id="icon-avator_椭圆形" fill="#001A49" transform="translate(22.534454, 19.727617) rotate(6.000000) translate(-22.534454, -19.727617) " cx="22.5344537" cy="19.7276165" rx="1" ry="1.60652835"></ellipse>
                                    <ellipse id="icon-avator_椭圆形备份-7" fill="#001A49" transform="translate(12.888800, 20.011925) rotate(6.000000) translate(-12.888800, -20.011925) " cx="12.8888001" cy="20.0119246" rx="1" ry="1.60652835"></ellipse>
                                </g>
                            </g>
                            <mask id="icon-avator_mask-11" fill="white">
                                <use xlink:href="#icon-avator_path-10"></use>
                            </mask>
                            <use id="icon-avator_路径" stroke="none" fill="#B1CCFF" fill-rule="evenodd" xlink:href="#icon-avator_path-10"></use>
                            <polygon id="icon-avator_路径-39" stroke="none" fill="#32305F" fill-rule="evenodd" mask="url(#icon-avator_mask-11)" points="40.6240676 49.8168496 43.7509069 47.4679208 48.6770604 47.4679208 49.6646438 49.8168496 47.2518764 53.3407925 44.3849808 53.3407925"></polygon>
                            <path d="M47.1763379,52.5634397 C46.1798558,54.9223448 45.2871832,60.355845 44.49832,68.8639403 C43.7094568,77.3720355 43.0826181,86.8214616 42.617804,97.2122184 L46.7936626,103.096109 L51.7286021,97.2122184 C50.3553872,82.2682705 49.6539191,71.6805466 49.6241979,65.4490469 C49.5944766,59.2175472 49.7302923,54.9223448 50.0316448,52.5634397 L47.1763379,52.5634397 Z" id="icon-avator_路径-40" stroke="none" fill="#32305F" fill-rule="evenodd" mask="url(#icon-avator_mask-11)" transform="translate(47.173203, 77.829774) scale(-1, 1) translate(-47.173203, -77.829774) "></path>
                            <path d="M29.7506741,44.3928706 C37.1816272,50.3581519 41.0408295,53.3407925 41.328281,53.3407925 C41.6157324,53.3407925 43.2420857,50.7908067 46.207341,45.690835 L33.7866154,38.9756863 L29.7506741,44.3928706 Z" id="icon-avator_路径-153" stroke="#7091CF" stroke-width="0.833333333" fill="#B1CCFF" fill-rule="evenodd" stroke-linecap="round" mask="url(#icon-avator_mask-11)"></path>
                            <path d="M44.800094,45.9501437 C47.5111263,50.6325686 49.0431141,52.9799469 49.3960573,52.9922786 C49.7490005,53.0044812 51.5504539,49.5287556 54.8004175,42.5651016 L50.2438795,38.3893913 L44.800094,45.9501437 Z" id="icon-avator_路径-7" stroke="#7091CF" stroke-width="0.833333333" fill="#B1CCFF" fill-rule="evenodd" stroke-linecap="round" mask="url(#icon-avator_mask-11)"></path>
                            <g id="icon-avator_徽章" opacity="0" stroke="none" stroke-width="1" fill="none" fill-rule="evenodd" mask="url(#icon-avator_mask-11)">
                                <g transform="translate(31.354309, 66.599591) scale(-1, 1) rotate(4.000000) translate(-31.354309, -66.599591) translate(29.207172, 64.011929)">
                                    <path d="M2.14713684,8.87840066e-13 C3.33296777,8.87840066e-13 4.29427368,0.960732902 4.29427368,2.145857 C4.29427368,2.36607866 4.2610801,2.57855218 4.1994204,2.77855291 L4.15338804,2.91318767 C4.12608729,2.98338672 4.09488292,3.05334764 4.06016873,3.12121763 L4.00460114,3.24233313 C3.7604653,3.75551149 3.15701592,4.79549424 2.14748742,5.13506571 L2.01350304,5.17532291 C2.00342668,5.17886342 0.932619703,4.93412028 0.263258347,3.17569056 L0.213253328,3.07924297 L0.161394314,2.96479981 L0.153866137,2.94420767 C0.0544170304,2.69709159 0,2.4278254 0,2.145857 C0,0.960732902 0.961305907,8.87840066e-13 2.14713684,8.87840066e-13 Z" id="icon-avator_路径" fill="#FDD246"></path>
                                    <path d="M2.03136265,3.57062858 C2.88656985,3.57062858 3.6156593,2.88506411 3.6598295,2.03937747 C3.70399971,1.19369084 3.04652432,0.508126367 2.19131712,0.508126367 C1.33610992,0.508126367 0.607020473,1.19369084 0.562850264,2.03937747 C0.518680055,2.88506411 1.17615544,3.57062858 2.03136265,3.57062858 Z" id="icon-avator_椭圆形" fill="#FE0200"></path>
                                    <g id="icon-avator_编组-11" stroke-width="1" fill="none" transform="translate(0.936547, 1.033607)">
                                        <polygon id="icon-avator_星形" fill="#D8D8D8" points="1.14665039 0.745849167 0.88095452 0.899502545 0.931697916 0.574059467 0.716745444 0.343579399 1.01380245 0.296097894 1.14665039 0 1.27949832 0.296097894 1.57655533 0.343579399 1.36160286 0.574059467 1.41234625 0.899502545"></polygon>
                                        <polygon id="icon-avator_星形备份" fill="#D8D8D8" points="2.10494984 0.88793441 1.96526526 0.972871909 1.99194264 0.7929714 1.87893544 0.665565152 2.03510755 0.639318021 2.10494984 0.475639131 2.17479213 0.639318021 2.33096425 0.665565152 2.21795704 0.7929714 2.24463443 0.972871909"></polygon>
                                        <polygon id="icon-avator_星形备份-2" fill="#D8D8D8" points="1.68506572 1.57889278 1.54538114 1.66383028 1.57205852 1.48392977 1.45905132 1.35652353 1.61522343 1.3302764 1.68506572 1.16659751 1.75490801 1.3302764 1.91108013 1.35652353 1.79807292 1.48392977 1.8247503 1.66383028"></polygon>
                                        <polygon id="icon-avator_星形备份-3" fill="#D8D8D8" points="0.753552136 1.62339583 0.613867552 1.70833333 0.640544934 1.52843282 0.527537732 1.40102658 0.683709844 1.37477945 0.753552136 1.21110056 0.823394427 1.37477945 0.97956654 1.40102658 0.866559338 1.52843282 0.893236719 1.70833333"></polygon>
                                        <polygon id="icon-avator_星形备份-4" fill="#D8D8D8" points="0.226014404 0.929192688 0.0863298204 1.01413019 0.113007202 0.834229678 4.11117806e-13 0.70682343 0.156172112 0.680576299 0.226014404 0.516897409 0.295856696 0.680576299 0.452028808 0.70682343 0.339021606 0.834229678 0.365698988 1.01413019"></polygon>
                                    </g>
                                </g>
                            </g>
                        </g>
                    </g>
                </g>
            </g>
        </g>
    </g>
</svg>